ffmpeg version N-91500-g3870ed7ab3 Copyright (c) 2000-2018 the FFmpeg developers
  built with gcc 6.3.0 (Raspbian 6.3.0-18+rpi1+deb9u1) 20170516
  configuration: 
  libavutil      56. 18.102 / 56. 18.102
  libavcodec     58. 21.106 / 58. 21.106
  libavformat    58. 17.101 / 58. 17.101
  libavdevice    58.  4.101 / 58.  4.101
  libavfilter     7. 26.100 /  7. 26.100
  libswscale      5.  2.100 /  5.  2.100
  libswresample   3.  2.100 /  3.  2.100
Guessed Channel Layout for Input Stream #0.0 : mono
Input #0, s16le, from '/dev/zero':
  Duration: N/A, bitrate: 705 kb/s
    Stream #0:0: Audio: pcm_s16le, 44100 Hz, mono, s16, 705 kb/s
Input #1, video4linux2,v4l2, from '/dev/video0':
  Duration: N/A, start: 8597.442143, bitrate: N/A
    Stream #1:0: Video: h264 (High), yuv420p(progressive), 1280x720, 8 fps, 8 tbr, 1000k tbn, 2000k tbc
Stream mapping:
  Stream #1:0 -> #0:0 (copy)
  Stream #0:0 -> #0:1 (pcm_s16le (native) -> aac (native))
Press [q] to stop, [?] for help
[aac @ 0x2653820] Bitrate 100 is extremely low, maybe you mean 100k
The bitrate parameter is set too low. It takes bits/s as argument, not kbits/s
Output #0, flv, to 'rtmp:localhost/live/movie':
  Metadata:
    encoder         : Lavf58.17.101
    Stream #0:0: Video: h264 (High) ([7][0][0][0] / 0x0007), yuv420p(progressive), 1280x720, q=2-31, 8 fps, 8 tbr, 1k tbn, 1000k tbc
    Stream #0:1: Audio: aac (LC) ([10][0][0][0] / 0x000A), 44100 Hz, mono, fltp, 0 kb/s
    Metadata:
      encoder         : Lavc58.21.106 aac
[flv @ 0x2651aa0] Timestamps are unset in a packet for stream 0. This is deprecated and will stop working in the future. Fix your code to set the timestamps properly
[video4linux2,v4l2 @ 0x2637a60] Thread message queue blocking; consider raising the thread_queue_size option (current value: 8)
frame=    6 fps=0.0 q=-1.0 size=     113kB time=00:00:00.50 bitrate=1844.6kbits/s speed=0.992x    frame=   10 fps=9.9 q=-1.0 size=     234kB time=00:00:01.00 bitrate=1912.4kbits/s speed=0.995x    frame=   14 fps=9.3 q=-1.0 size=     310kB time=00:00:01.50 bitrate=1690.7kbits/s speed=0.995x    frame=   18 fps=8.9 q=-1.0 size=     378kB time=00:00:02.00 bitrate=1547.9kbits/s speed=0.994x    frame=   22 fps=8.8 q=-1.0 size=     466kB time=00:00:02.50 bitrate=1525.1kbits/s speed=0.995x    frame=   26 fps=8.6 q=-1.0 size=     540kB time=00:00:03.00 bitrate=1474.7kbits/s speed=0.994x    frame=   30 fps=8.5 q=-1.0 size=     601kB time=00:00:03.50 bitrate=1406.7kbits/s speed=0.993x    frame=   34 fps=8.4 q=-1.0 size=     663kB time=00:00:04.00 bitrate=1357.1kbits/s speed=0.993x    frame=   38 fps=8.4 q=-1.0 size=     726kB time=00:00:04.50 bitrate=1320.6kbits/s speed=0.993x    frame=   42 fps=8.3 q=-1.0 size=     787kB time=00:00:05.01 bitrate=1285.3kbits/s speed=0.995x    frame=   46 fps=8.3 q=-1.0 size=     845kB time=00:00:05.50 bitrate=1257.4kbits/s speed=0.993x    frame=   50 fps=8.3 q=-1.0 size=     907kB time=00:00:06.01 bitrate=1235.0kbits/s speed=0.994x    frame=   54 fps=8.2 q=-1.0 size=     981kB time=00:00:06.52 bitrate=1231.2kbits/s speed=0.996x    frame=   58 fps=8.2 q=-1.0 size=    1025kB time=00:00:07.01 bitrate=1197.5kbits/s speed=0.994x    frame=   62 fps=8.2 q=-1.0 size=    1127kB time=00:00:07.52 bitrate=1227.7kbits/s speed=0.996x    frame=   66 fps=8.2 q=-1.0 size=    1170kB time=00:00:08.01 bitrate=1196.8kbits/s speed=0.994x    frame=   70 fps=8.2 q=-1.0 size=    1228kB time=00:00:08.52 bitrate=1180.5kbits/s speed=0.995x    frame=   74 fps=8.2 q=-1.0 size=    1300kB time=00:00:09.03 bitrate=1178.8kbits/s speed=0.997x    frame=   78 fps=8.2 q=-1.0 size=    1343kB time=00:00:09.52 bitrate=1155.3kbits/s speed=0.995x    frame=   83 fps=8.2 q=-1.0 size=    1413kB time=00:00:10.12 bitrate=1143.1kbits/s speed=1.01x    frame=   86 fps=8.1 q=-1.0 size=    1470kB time=00:00:10.54 bitrate=1142.2kbits/s speed=0.997x    frame=   91 fps=8.2 q=-1.0 size=    1529kB time=00:00:11.12 bitrate=1125.5kbits/s speed=   1x    frame=   95 fps=8.2 q=-1.0 size=    1588kB time=00:00:11.62 bitrate=1118.9kbits/s speed=   1x    frame=   99 fps=8.2 q=-1.0 size=    1645kB time=00:00:12.12 bitrate=1111.5kbits/s speed=   1x    frame=  103 fps=8.2 q=-1.0 size=    1702kB time=00:00:12.62 bitrate=1104.1kbits/s speed=   1x    frame=  107 fps=8.2 q=-1.0 size=    1758kB time=00:00:13.12 bitrate=1097.3kbits/s speed=   1x    frame=  111 fps=8.2 q=-1.0 size=    1815kB time=00:00:13.62 bitrate=1091.3kbits/s speed=   1x    frame=  115 fps=8.2 q=-1.0 size=    1874kB time=00:00:14.12 bitrate=1086.5kbits/s speed=   1x    frame=  119 fps=8.1 q=-1.0 size=    1930kB time=00:00:14.62 bitrate=1081.0kbits/s speed=   1x    frame=  123 fps=8.1 q=-1.0 size=    2016kB time=00:00:15.12 bitrate=1091.9kbits/s speed=   1x    frame=  127 fps=8.1 q=-1.0 size=    2072kB time=00:00:15.62 bitrate=1086.0kbits/s speed=   1x    frame=  131 fps=8.1 q=-1.0 size=    2128kB time=00:00:16.12 bitrate=1080.8kbits/s speed=   1x    frame=  135 fps=8.1 q=-1.0 size=    2184kB time=00:00:16.62 bitrate=1076.3kbits/s speed=   1x    frame=  139 fps=8.1 q=-1.0 size=    2242kB time=00:00:17.12 bitrate=1072.4kbits/s speed=   1x    frame=  143 fps=8.1 q=-1.0 size=    2298kB time=00:00:17.62 bitrate=1068.2kbits/s speed=   1x    frame=  147 fps=8.1 q=-1.0 size=    2355kB time=00:00:18.12 bitrate=1064.3kbits/s speed=0.999x    frame=  151 fps=8.1 q=-1.0 size=    2412kB time=00:00:18.62 bitrate=1060.7kbits/s speed=0.999x    frame=  155 fps=8.1 q=-1.0 size=    2467kB time=00:00:19.12 bitrate=1056.8kbits/s speed=0.999x    frame=  159 fps=8.1 q=-1.0 size=    2524kB time=00:00:19.62 bitrate=1053.6kbits/s speed=0.999x    frame=  163 fps=8.1 q=-1.0 size=    2580kB time=00:00:20.13 bitrate=1050.1kbits/s speed=0.999x    frame=  167 fps=8.1 q=-1.0 size=    2638kB time=00:00:20.62 bitrate=1047.9kbits/s speed=0.998x    av_interleaved_write_frame(): Broken pipe
[flv @ 0x2651aa0] Failed to update header with correct duration.
[flv @ 0x2651aa0] Failed to update header with correct filesize.
Error writing trailer of rtmp:localhost/live/movie: Broken pipe
frame=  170 fps=8.1 q=-1.0 Lsize=    2683kB time=00:00:21.00 bitrate=1046.5kbits/s speed=0.994x    
video:2675kB audio:4kB subtitle:0kB other streams:0kB global headers:0kB muxing overhead: 0.154075%
[aac @ 0x2653820] Qavg: 0.000
Exiting normally, received signal 15.
ffmpeg version N-91500-g3870ed7ab3 Copyright (c) 2000-2018 the FFmpeg developers
  built with gcc 6.3.0 (Raspbian 6.3.0-18+rpi1+deb9u1) 20170516
  configuration: 
  libavutil      56. 18.102 / 56. 18.102
  libavcodec     58. 21.106 / 58. 21.106
  libavformat    58. 17.101 / 58. 17.101
  libavdevice    58.  4.101 / 58.  4.101
  libavfilter     7. 26.100 /  7. 26.100
  libswscale      5.  2.100 /  5.  2.100
  libswresample   3.  2.100 /  3.  2.100
Guessed Channel Layout for Input Stream #0.0 : mono
Input #0, s16le, from '/dev/zero':
  Duration: N/A, bitrate: 705 kb/s
    Stream #0:0: Audio: pcm_s16le, 44100 Hz, mono, s16, 705 kb/s
Input #1, video4linux2,v4l2, from '/dev/video0':
  Duration: N/A, start: 8836.926940, bitrate: N/A
    Stream #1:0: Video: h264 (High), yuv420p(progressive), 1280x720, 8 fps, 8 tbr, 1000k tbn, 2000k tbc
Stream mapping:
  Stream #1:0 -> #0:0 (copy)
  Stream #0:0 -> #0:1 (pcm_s16le (native) -> aac (native))
Press [q] to stop, [?] for help
[aac @ 0x1985640] Bitrate 100 is extremely low, maybe you mean 100k
The bitrate parameter is set too low. It takes bits/s as argument, not kbits/s
Output #0, flv, to 'rtmp:localhost/live/movie':
  Metadata:
    encoder         : Lavf58.17.101
    Stream #0:0: Video: h264 (High) ([7][0][0][0] / 0x0007), yuv420p(progressive), 1280x720, q=2-31, 8 fps, 8 tbr, 1k tbn, 1000k tbc
    Stream #0:1: Audio: aac (LC) ([10][0][0][0] / 0x000A), 44100 Hz, mono, fltp, 0 kb/s
    Metadata:
      encoder         : Lavc58.21.106 aac
[flv @ 0x1982a90] Timestamps are unset in a packet for stream 0. This is deprecated and will stop working in the future. Fix your code to set the timestamps properly
[video4linux2,v4l2 @ 0x1968a60] Thread message queue blocking; consider raising the thread_queue_size option (current value: 8)
frame=    6 fps=0.0 q=-1.0 size=     112kB time=00:00:00.50 bitrate=1830.0kbits/s speed=0.996x    frame=   10 fps= 10 q=-1.0 size=     233kB time=00:00:01.00 bitrate=1906.1kbits/s speed=0.997x    frame=   14 fps=9.3 q=-1.0 size=     310kB time=00:00:01.50 bitrate=1689.2kbits/s speed=0.995x    frame=   18 fps=9.0 q=-1.0 size=     370kB time=00:00:02.00 bitrate=1514.8kbits/s speed=0.995x    frame=   22 fps=8.8 q=-1.0 size=     457kB time=00:00:02.50 bitrate=1496.4kbits/s speed=0.996x    frame=   26 fps=8.6 q=-1.0 size=     529kB time=00:00:03.00 bitrate=1445.2kbits/s speed=0.996x    frame=   30 fps=8.5 q=-1.0 size=     594kB time=00:00:03.50 bitrate=1390.7kbits/s speed=0.995x    frame=   34 fps=8.4 q=-1.0 size=     655kB time=00:00:04.00 bitrate=1341.5kbits/s speed=0.993x    frame=   38 fps=8.4 q=-1.0 size=     716kB time=00:00:04.50 bitrate=1301.8kbits/s speed=0.994x    frame=   42 fps=8.3 q=-1.0 size=     774kB time=00:00:05.00 bitrate=1268.7kbits/s speed=0.994x    frame=   46 fps=8.3 q=-1.0 size=     831kB time=00:00:05.50 bitrate=1237.5kbits/s speed=0.994x    frame=   50 fps=8.3 q=-1.0 size=     887kB time=00:00:06.01 bitrate=1207.8kbits/s speed=0.996x    frame=   54 fps=8.2 q=-1.0 size=     954kB time=00:00:06.52 bitrate=1198.2kbits/s speed=0.997x    frame=   58 fps=8.2 q=-1.0 size=     995kB time=00:00:07.01 bitrate=1162.8kbits/s speed=0.994x    frame=   63 fps=8.3 q=-1.0 size=    1095kB time=00:00:07.62 bitrate=1176.2kbits/s speed=1.01x    frame=   66 fps=8.2 q=-1.0 size=    1152kB time=00:00:08.03 bitrate=1174.5kbits/s speed=0.996x    frame=   70 fps=8.2 q=-1.0 size=    1211kB time=00:00:08.54 bitrate=1161.4kbits/s speed=0.997x    frame=   75 fps=8.3 q=-1.0 size=    1270kB time=00:00:09.12 bitrate=1139.6kbits/s speed=1.01x    frame=   79 fps=8.2 q=-1.0 size=    1328kB time=00:00:09.62 bitrate=1129.9kbits/s speed=   1x    frame=   83 fps=8.2 q=-1.0 size=    1385kB time=00:00:10.12 bitrate=1120.2kbits/s speed=   1x    frame=   87 fps=8.2 q=-1.0 size=    1441kB time=00:00:10.62 bitrate=1110.7kbits/s speed=   1x    frame=   91 fps=8.2 q=-1.0 size=    1496kB time=00:00:11.12 bitrate=1101.4kbits/s speed=   1x    frame=   95 fps=8.2 q=-1.0 size=    1551kB time=00:00:11.62 bitrate=1092.9kbits/s speed=   1x    frame=   99 fps=8.2 q=-1.0 size=    1607kB time=00:00:12.12 bitrate=1085.7kbits/s speed=   1x    frame=  103 fps=8.2 q=-1.0 size=    1666kB time=00:00:12.62 bitrate=1080.9kbits/s speed=   1x    frame=  107 fps=8.2 q=-1.0 size=    1723kB time=00:00:13.12 bitrate=1075.4kbits/s speed=   1x    frame=  111 fps=8.1 q=-1.0 size=    1780kB time=00:00:13.62 bitrate=1070.1kbits/s speed=   1x    frame=  115 fps=8.1 q=-1.0 size=    1837kB time=00:00:14.12 bitrate=1065.2kbits/s speed=   1x    frame=  119 fps=8.1 q=-1.0 size=    1894kB time=00:00:14.62 bitrate=1060.8kbits/s speed=   1x    frame=  123 fps=8.1 q=-1.0 size=    1981kB time=00:00:15.12 bitrate=1073.1kbits/s speed=   1x    frame=  127 fps=8.1 q=-1.0 size=    2038kB time=00:00:15.62 bitrate=1068.5kbits/s speed=   1x    frame=  131 fps=8.1 q=-1.0 size=    2094kB time=00:00:16.12 bitrate=1063.8kbits/s speed=0.999x    frame=  135 fps=8.1 q=-1.0 size=    2149kB time=00:00:16.62 bitrate=1059.1kbits/s speed=0.999x    frame=  139 fps=8.1 q=-1.0 size=    2205kB time=00:00:17.12 bitrate=1054.7kbits/s speed=0.998x    frame=  143 fps=8.1 q=-1.0 size=    2260kB time=00:00:17.62 bitrate=1050.4kbits/s speed=0.998x    frame=  147 fps=8.1 q=-1.0 size=    2316kB time=00:00:18.13 bitrate=1046.0kbits/s speed=0.998x    frame=  151 fps=8.1 q=-1.0 size=    2373kB time=00:00:18.64 bitrate=1042.5kbits/s speed=0.998x    frame=  155 fps=8.1 q=-1.0 size=    2444kB time=00:00:19.15 bitrate=1045.1kbits/s speed=0.999x    frame=  159 fps=8.1 q=-1.0 size=    2488kB time=00:00:19.64 bitrate=1037.5kbits/s speed=0.998x    frame=  164 fps=8.1 q=-1.0 size=    2558kB time=00:00:20.25 bitrate=1035.0kbits/s speed=   1x    frame=  167 fps=8.1 q=-1.0 size=    2615kB time=00:00:20.66 bitrate=1036.6kbits/s speed=0.999x    frame=  172 fps=8.1 q=-1.0 size=    2672kB time=00:00:21.25 bitrate=1030.1kbits/s speed=   1x    frame=  176 fps=8.1 q=-1.0 size=    2730kB time=00:00:21.75 bitrate=1028.3kbits/s speed=   1x    frame=  180 fps=8.1 q=-1.0 size=    2787kB time=00:00:22.25 bitrate=1026.1kbits/s speed=   1x    frame=  184 fps=8.1 q=-1.0 size=    2875kB time=00:00:22.75 bitrate=1035.1kbits/s speed=   1x    frame=  188 fps=8.1 q=-1.0 size=    2930kB time=00:00:23.25 bitrate=1032.4kbits/s speed=   1x    frame=  192 fps=8.1 q=-1.0 size=    2985kB time=00:00:23.75 bitrate=1029.8kbits/s speed=   1x    frame=  196 fps=8.1 q=-1.0 size=    3041kB time=00:00:24.25 bitrate=1027.4kbits/s speed=   1x    frame=  200 fps=8.1 q=-1.0 size=    3096kB time=00:00:24.75 bitrate=1024.9kbits/s speed=   1x    frame=  204 fps=8.1 q=-1.0 size=    3151kB time=00:00:25.25 bitrate=1022.2kbits/s speed=   1x    frame=  208 fps=8.1 q=-1.0 size=    3207kB time=00:00:25.75 bitrate=1020.3kbits/s speed=   1x    frame=  212 fps=8.1 q=-1.0 size=    3264kB time=00:00:26.25 bitrate=1018.6kbits/s speed=   1x    frame=  216 fps=8.1 q=-1.0 size=    3321kB time=00:00:26.75 bitrate=1017.0kbits/s speed=   1x    frame=  220 fps=8.1 q=-1.0 size=    3376kB time=00:00:27.25 bitrate=1014.8kbits/s speed=   1x    frame=  224 fps=8.1 q=-1.0 size=    3431kB time=00:00:27.75 bitrate=1012.9kbits/s speed=   1x    frame=  228 fps=8.1 q=-1.0 size=    3486kB time=00:00:28.25 bitrate=1010.9kbits/s speed=   1x    frame=  232 fps=8.1 q=-1.0 size=    3542kB time=00:00:28.75 bitrate=1009.3kbits/s speed=   1x    frame=  236 fps=8.1 q=-1.0 size=    3598kB time=00:00:29.25 bitrate=1007.7kbits/s speed=   1x    frame=  240 fps=8.1 q=-1.0 size=    3655kB time=00:00:29.75 bitrate=1006.4kbits/s speed=   1x    frame=  244 fps=8.1 q=-1.0 size=    3744kB time=00:00:30.25 bitrate=1013.8kbits/s speed=   1x    frame=  248 fps=8.1 q=-1.0 size=    3800kB time=00:00:30.75 bitrate=1012.2kbits/s speed=   1x    frame=  252 fps=8.1 q=-1.0 size=    3857kB time=00:00:31.25 bitrate=1011.1kbits/s speed=   1x    frame=  256 fps=8.1 q=-1.0 size=    3913kB time=00:00:31.75 bitrate=1009.6kbits/s speed=0.999x    frame=  260 fps=8.1 q=-1.0 size=    3968kB time=00:00:32.25 bitrate=1007.8kbits/s speed=0.999x    frame=  264 fps=8.1 q=-1.0 size=    4022kB time=00:00:32.75 bitrate=1006.1kbits/s speed=0.999x    frame=  268 fps=8.1 q=-1.0 size=    4077kB time=00:00:33.25 bitrate=1004.6kbits/s speed=0.999x    frame=  272 fps=8.1 q=-1.0 size=    4133kB time=00:00:33.75 bitrate=1003.3kbits/s speed=0.999x    frame=  276 fps=8.1 q=-1.0 size=    4191kB time=00:00:34.25 bitrate=1002.3kbits/s speed=0.999x    frame=  280 fps=8.0 q=-1.0 size=    4246kB time=00:00:34.76 bitrate=1000.8kbits/s speed=0.999x    frame=  284 fps=8.0 q=-1.0 size=    4302kB time=00:00:35.25 bitrate= 999.8kbits/s speed=0.999x    frame=  288 fps=8.0 q=-1.0 size=    4357kB time=00:00:35.75 bitrate= 998.2kbits/s speed=0.999x    frame=  292 fps=8.0 q=-1.0 size=    4412kB time=00:00:36.26 bitrate= 996.6kbits/s speed=0.999x    frame=  296 fps=8.0 q=-1.0 size=    4469kB time=00:00:36.75 bitrate= 996.0kbits/s speed=0.999x    frame=  300 fps=8.0 q=-1.0 size=    4526kB time=00:00:37.26 bitrate= 994.8kbits/s speed=0.999x    frame=  305 fps=8.1 q=-1.0 size=    4627kB time=00:00:37.87 bitrate=1000.8kbits/s speed=   1x    frame=  308 fps=8.0 q=-1.0 size=    4683kB time=00:00:38.28 bitrate=1001.9kbits/s speed=0.999x    frame=  313 fps=8.1 q=-1.0 size=    4740kB time=00:00:38.87 bitrate= 998.8kbits/s speed=   1x    frame=  317 fps=8.1 q=-1.0 size=    4797kB time=00:00:39.37 bitrate= 998.1kbits/s speed=   1x    frame=  321 fps=8.1 q=-1.0 size=    4856kB time=00:00:39.87 bitrate= 997.6kbits/s speed=   1x    frame=  325 fps=8.1 q=-1.0 size=    4913kB time=00:00:40.37 bitrate= 996.8kbits/s speed=   1x    frame=  329 fps=8.1 q=-1.0 size=    4970kB time=00:00:40.87 bitrate= 996.1kbits/s speed=   1x    frame=  333 fps=8.1 q=-1.0 size=    5028kB time=00:00:41.37 bitrate= 995.6kbits/s speed=   1x    frame=  337 fps=8.1 q=-1.0 size=    5087kB time=00:00:41.87 bitrate= 995.1kbits/s speed=   1x    frame=  341 fps=8.1 q=-1.0 size=    5143kB time=00:00:42.37 bitrate= 994.2kbits/s speed=   1x    frame=  345 fps=8.0 q=-1.0 size=    5198kB time=00:00:42.87 bitrate= 993.1kbits/s speed=   1x    frame=  349 fps=8.0 q=-1.0 size=    5254kB time=00:00:43.37 bitrate= 992.3kbits/s speed=   1x    frame=  353 fps=8.0 q=-1.0 size=    5310kB time=00:00:43.87 bitrate= 991.5kbits/s speed=   1x    frame=  357 fps=8.0 q=-1.0 size=    5367kB time=00:00:44.37 bitrate= 990.8kbits/s speed=   1x    frame=  361 fps=8.0 q=-1.0 size=    5422kB time=00:00:44.87 bitrate= 989.9kbits/s speed=   1x    frame=  365 fps=8.0 q=-1.0 size=    5509kB time=00:00:45.37 bitrate= 994.6kbits/s speed=0.999x    frame=  369 fps=8.0 q=-1.0 size=    5565kB time=00:00:45.88 bitrate= 993.6kbits/s speed=0.999x    frame=  373 fps=8.0 q=-1.0 size=    5621kB time=00:00:46.39 bitrate= 992.6kbits/s speed=0.999x    frame=  377 fps=8.0 q=-1.0 size=    5683kB time=00:00:46.88 bitrate= 993.1kbits/s speed=0.999x    frame=  381 fps=8.0 q=-1.0 size=    5741kB time=00:00:47.39 bitrate= 992.4kbits/s speed=0.999x    frame=  386 fps=8.1 q=-1.0 size=    5812kB time=00:00:48.00 bitrate= 991.9kbits/s speed=   1x    frame=  390 fps=8.1 q=-1.0 size=    5869kB time=00:00:48.50 bitrate= 991.3kbits/s speed=   1x    frame=  394 fps=8.0 q=-1.0 size=    5926kB time=00:00:49.00 bitrate= 990.7kbits/s speed=   1x    frame=  398 fps=8.0 q=-1.0 size=    5984kB time=00:00:49.50 bitrate= 990.3kbits/s speed=   1x    frame=  402 fps=8.0 q=-1.0 size=    6041kB time=00:00:50.00 bitrate= 989.7kbits/s speed=   1x    frame=  406 fps=8.0 q=-1.0 size=    6100kB time=00:00:50.50 bitrate= 989.5kbits/s speed=   1x    frame=  410 fps=8.0 q=-1.0 size=    6159kB time=00:00:51.00 bitrate= 989.3kbits/s speed=   1x    frame=  414 fps=8.0 q=-1.0 size=    6219kB time=00:00:51.49 bitrate= 989.2kbits/s speed=   1x    frame=  418 fps=8.0 q=-1.0 size=    6276kB time=00:00:51.99 bitrate= 988.8kbits/s speed=   1x    frame=  422 fps=8.0 q=-1.0 size=    6362kB time=00:00:52.49 bitrate= 992.7kbits/s speed=   1x    frame=  426 fps=8.0 q=-1.0 size=    6420kB time=00:00:52.99 bitrate= 992.3kbits/s speed=   1x    frame=  430 fps=8.0 q=-1.0 size=    6478kB time=00:00:53.49 bitrate= 991.9kbits/s speed=   1x    frame=  434 fps=8.0 q=-1.0 size=    6536kB time=00:00:53.99 bitrate= 991.6kbits/s speed=   1x    frame=  438 fps=8.0 q=-1.0 size=    6593kB time=00:00:54.49 bitrate= 991.1kbits/s speed=   1x    frame=  442 fps=8.0 q=-1.0 size=    6650kB time=00:00:54.99 bitrate= 990.5kbits/s speed=   1x    frame=  446 fps=8.0 q=-1.0 size=    6708kB time=00:00:55.49 bitrate= 990.1kbits/s speed=   1x    frame=  450 fps=8.0 q=-1.0 size=    6765kB time=00:00:55.99 bitrate= 989.7kbits/s speed=   1x    frame=  454 fps=8.0 q=-1.0 size=    6822kB time=00:00:56.49 bitrate= 989.1kbits/s speed=   1x    frame=  458 fps=8.0 q=-1.0 size=    6879kB time=00:00:56.99 bitrate= 988.7kbits/s speed=   1x    frame=  462 fps=8.0 q=-1.0 size=    6937kB time=00:00:57.49 bitrate= 988.3kbits/s speed=   1x    frame=  466 fps=8.0 q=-1.0 size=    6995kB time=00:00:58.00 bitrate= 987.9kbits/s speed=   1x    frame=  470 fps=8.0 q=-1.0 size=    7053kB time=00:00:58.49 bitrate= 987.7kbits/s speed=0.999x    frame=  474 fps=8.0 q=-1.0 size=    7111kB time=00:00:59.00 bitrate= 987.3kbits/s speed=0.999x    frame=  478 fps=8.0 q=-1.0 size=    7167kB time=00:00:59.51 bitrate= 986.5kbits/s speed=   1x    frame=  482 fps=8.0 q=-1.0 size=    7269kB time=00:01:00.02 bitrate= 992.0kbits/s speed=   1x    frame=  486 fps=8.0 q=-1.0 size=    7312kB time=00:01:00.51 bitrate= 989.9kbits/s speed=0.999x    frame=  491 fps=8.0 q=-1.0 size=    7383kB time=00:01:01.12 bitrate= 989.5kbits/s speed=   1x    frame=  495 fps=8.0 q=-1.0 size=    7440kB time=00:01:01.62 bitrate= 989.1kbits/s speed=   1x    frame=  498 fps=8.0 q=-1.0 size=    7484kB time=00:01:02.02 bitrate= 988.5kbits/s speed=0.999x    frame=  503 fps=8.0 q=-1.0 size=    7557kB time=00:01:02.62 bitrate= 988.5kbits/s speed=   1x    frame=  506 fps=8.0 q=-1.0 size=    7615kB time=00:01:03.04 bitrate= 989.5kbits/s speed=   1x    frame=  511 fps=8.0 q=-1.0 size=    7673kB time=00:01:03.62 bitrate= 987.9kbits/s speed=   1x    frame=  515 fps=8.0 q=-1.0 size=    7731kB time=00:01:04.12 bitrate= 987.6kbits/s speed=   1x    frame=  519 fps=8.0 q=-1.0 size=    7788kB time=00:01:04.62 bitrate= 987.3kbits/s speed=   1x    frame=  523 fps=8.0 q=-1.0 size=    7847kB time=00:01:05.12 bitrate= 987.1kbits/s speed=   1x    frame=  527 fps=8.0 q=-1.0 size=    7905kB time=00:01:05.62 bitrate= 986.8kbits/s speed=   1x    frame=  531 fps=8.0 q=-1.0 size=    7964kB time=00:01:06.12 bitrate= 986.6kbits/s speed=   1x    frame=  535 fps=8.0 q=-1.0 size=    8022kB time=00:01:06.62 bitrate= 986.4kbits/s speed=   1x    frame=  539 fps=8.0 q=-1.0 size=    8083kB time=00:01:07.12 bitrate= 986.5kbits/s speed=   1x    frame=  543 fps=8.0 q=-1.0 size=    8172kB time=00:01:07.62 bitrate= 989.9kbits/s speed=   1x    frame=  547 fps=8.0 q=-1.0 size=    8229kB time=00:01:08.12 bitrate= 989.6kbits/s speed=   1x    frame=  551 fps=8.0 q=-1.0 size=    8287kB time=00:01:08.62 bitrate= 989.2kbits/s speed=   1x    frame=  555 fps=8.0 q=-1.0 size=    8346kB time=00:01:09.12 bitrate= 989.1kbits/s speed=   1x    frame=  559 fps=8.0 q=-1.0 size=    8404kB time=00:01:09.62 bitrate= 988.8kbits/s speed=   1x    frame=  563 fps=8.0 q=-1.0 size=    8461kB time=00:01:10.12 bitrate= 988.5kbits/s speed=   1x    frame=  567 fps=8.0 q=-1.0 size=    8519kB time=00:01:10.62 bitrate= 988.2kbits/s speed=   1x    frame=  571 fps=8.0 q=-1.0 size=    8578kB time=00:01:11.12 bitrate= 988.0kbits/s speed=   1x    frame=  575 fps=8.0 q=-1.0 size=    8636kB time=00:01:11.62 bitrate= 987.7kbits/s speed=   1x    frame=  579 fps=8.0 q=-1.0 size=    8694kB time=00:01:12.12 bitrate= 987.5kbits/s speed=   1x    frame=  583 fps=8.0 q=-1.0 size=    8751kB time=00:01:12.62 bitrate= 987.1kbits/s speed=   1x    frame=  587 fps=8.0 q=-1.0 size=    8809kB time=00:01:13.12 bitrate= 986.9kbits/s speed=   1x    frame=  591 fps=8.0 q=-1.0 size=    8869kB time=00:01:13.62 bitrate= 986.9kbits/s speed=   1x    frame=  595 fps=8.0 q=-1.0 size=    8930kB time=00:01:14.12 bitrate= 986.9kbits/s speed=   1x    frame=  599 fps=8.0 q=-1.0 size=    8987kB time=00:01:14.62 bitrate= 986.5kbits/s speed=   1x    frame=  603 fps=8.0 q=-1.0 size=    9076kB time=00:01:15.14 bitrate= 989.5kbits/s speed=   1x    frame=  607 fps=8.0 q=-1.0 size=    9148kB time=00:01:15.65 bitrate= 990.6kbits/s speed=   1x    frame=  611 fps=8.0 q=-1.0 size=    9191kB time=00:01:16.13 bitrate= 988.9kbits/s speed=0.999x    frame=  616 fps=8.0 q=-1.0 size=    9264kB time=00:01:16.74 bitrate= 988.8kbits/s speed=   1x    frame=  620 fps=8.0 q=-1.0 size=    9322kB time=00:01:17.24 bitrate= 988.6kbits/s speed=   1x    frame=  624 fps=8.0 q=-1.0 size=    9378kB time=00:01:17.74 bitrate= 988.1kbits/s speed=   1x    frame=  628 fps=8.0 q=-1.0 size=    9435kB time=00:01:18.24 bitrate= 987.8kbits/s speed=   1x    frame=  632 fps=8.0 q=-1.0 size=    9492kB time=00:01:18.74 bitrate= 987.5kbits/s speed=   1x    frame=  636 fps=8.0 q=-1.0 size=    9551kB time=00:01:19.24 bitrate= 987.3kbits/s speed=   1x    frame=  640 fps=8.0 q=-1.0 size=    9610kB time=00:01:19.74 bitrate= 987.1kbits/s speed=   1x    frame=  644 fps=8.0 q=-1.0 size=    9667kB time=00:01:20.24 bitrate= 986.8kbits/s speed=   1x    frame=  648 fps=8.0 q=-1.0 size=    9725kB time=00:01:20.74 bitrate= 986.6kbits/s speed=   1x    frame=  652 fps=8.0 q=-1.0 size=    9783kB time=00:01:21.24 bitrate= 986.4kbits/s speed=   1x    frame=  656 fps=8.0 q=-1.0 size=    9841kB time=00:01:21.74 bitrate= 986.2kbits/s speed=   1x    frame=  660 fps=8.0 q=-1.0 size=    9900kB time=00:01:22.24 bitrate= 986.0kbits/s speed=   1x    frame=  664 fps=8.0 q=-1.0 size=    9989kB time=00:01:22.74 bitrate= 988.9kbits/s speed=   1x    frame=  668 fps=8.0 q=-1.0 size=   10044kB time=00:01:23.24 bitrate= 988.3kbits/s speed=   1x    frame=  672 fps=8.0 q=-1.0 size=   10097kB time=00:01:23.74 bitrate= 987.7kbits/s speed=   1x    frame=  676 fps=8.0 q=-1.0 size=   10153kB time=00:01:24.24 bitrate= 987.2kbits/s speed=   1x    frame=  680 fps=8.0 q=-1.0 size=   10209kB time=00:01:24.74 bitrate= 986.8kbits/s speed=   1x    frame=  684 fps=8.0 q=-1.0 size=   10269kB time=00:01:25.24 bitrate= 986.8kbits/s speed=   1x    frame=  688 fps=8.0 q=-1.0 size=   10326kB time=00:01:25.74 bitrate= 986.5kbits/s speed=   1x    frame=  692 fps=8.0 q=-1.0 size=   10383kB time=00:01:26.24 bitrate= 986.2kbits/s speed=   1x    frame=  696 fps=8.0 q=-1.0 size=   10440kB time=00:01:26.75 bitrate= 985.8kbits/s speed=   1x    frame=  700 fps=8.0 q=-1.0 size=   10500kB time=00:01:27.26 bitrate= 985.7kbits/s speed=   1x    frame=  704 fps=8.0 q=-1.0 size=   10573kB time=00:01:27.77 bitrate= 986.8kbits/s speed=   1x    frame=  708 fps=8.0 q=-1.0 size=   10616kB time=00:01:28.25 bitrate= 985.3kbits/s speed=   1x    frame=  712 fps=8.0 q=-1.0 size=   10688kB time=00:01:28.77 bitrate= 986.3kbits/s speed=   1x    frame=  716 fps=8.0 q=-1.0 size=   10745kB time=00:01:29.28 bitrate= 985.9kbits/s speed=   1x    frame=  720 fps=8.0 q=-1.0 size=   10802kB time=00:01:29.79 bitrate= 985.5kbits/s speed=   1x    frame=  725 fps=8.0 q=-1.0 size=   10891kB time=00:01:30.37 bitrate= 987.2kbits/s speed=   1x    frame=  729 fps=8.0 q=-1.0 size=   10949kB time=00:01:30.87 bitrate= 987.0kbits/s speed=   1x    frame=  733 fps=8.0 q=-1.0 size=   11008kB time=00:01:31.37 bitrate= 986.9kbits/s speed=   1x    frame=  737 fps=8.0 q=-1.0 size=   11067kB time=00:01:31.87 bitrate= 986.8kbits/s speed=   1x    frame=  741 fps=8.0 q=-1.0 size=   11127kB time=00:01:32.37 bitrate= 986.8kbits/s speed=   1x    frame=  745 fps=8.0 q=-1.0 size=   11184kB time=00:01:32.87 bitrate= 986.5kbits/s speed=   1x    frame=  749 fps=8.0 q=-1.0 size=   11241kB time=00:01:33.37 bitrate= 986.3kbits/s speed=   1x    frame=  753 fps=8.0 q=-1.0 size=   11298kB time=00:01:33.87 bitrate= 986.0kbits/s speed=   1x    frame=  757 fps=8.0 q=-1.0 size=   11354kB time=00:01:34.37 bitrate= 985.6kbits/s speed=   1x    frame=  761 fps=8.0 q=-1.0 size=   11410kB time=00:01:34.87 bitrate= 985.3kbits/s speed=   1x    frame=  765 fps=8.0 q=-1.0 size=   11470kB time=00:01:35.37 bitrate= 985.2kbits/s speed=   1x    frame=  769 fps=8.0 q=-1.0 size=   11529kB time=00:01:35.87 bitrate= 985.1kbits/s speed=   1x    frame=  773 fps=8.0 q=-1.0 size=   11588kB time=00:01:36.37 bitrate= 985.0kbits/s speed=   1x    frame=  777 fps=8.0 q=-1.0 size=   11645kB time=00:01:36.87 bitrate= 984.8kbits/s speed=   1x    frame=  781 fps=8.0 q=-1.0 size=   11703kB time=00:01:37.37 bitrate= 984.6kbits/s speed=   1x    frame=  785 fps=8.0 q=-1.0 size=   11793kB time=00:01:37.87 bitrate= 987.1kbits/s speed=   1x    frame=  789 fps=8.0 q=-1.0 size=   11852kB time=00:01:38.37 bitrate= 986.9kbits/s speed=   1x    frame=  793 fps=8.0 q=-1.0 size=   11909kB time=00:01:38.87 bitrate= 986.7kbits/s speed=   1x    frame=  797 fps=8.0 q=-1.0 size=   11965kB time=00:01:39.38 bitrate= 986.3kbits/s speed=   1x    frame=  801 fps=8.0 q=-1.0 size=   12022kB time=00:01:39.89 bitrate= 985.9kbits/s speed=   1x    frame=  805 fps=8.0 q=-1.0 size=   12079kB time=00:01:40.38 bitrate= 985.8kbits/s speed=   1x    frame=  809 fps=8.0 q=-1.0 size=   12138kB time=00:01:40.89 bitrate= 985.6kbits/s speed=   1x    frame=  813 fps=8.0 q=-1.0 size=   12214kB time=00:01:41.40 bitrate= 986.7kbits/s speed=   1x    frame=  817 fps=8.0 q=-1.0 size=   12271kB time=00:01:41.91 bitrate= 986.4kbits/s speed=   1x    frame=  822 fps=8.0 q=-1.0 size=   12327kB time=00:01:42.49 bitrate= 985.2kbits/s speed=   1x    frame=  826 fps=8.0 q=-1.0 size=   12386kB time=00:01:42.99 bitrate= 985.1kbits/s speed=   1x    frame=  830 fps=8.0 q=-1.0 size=   12445kB time=00:01:43.49 bitrate= 985.0kbits/s speed=   1x    frame=  834 fps=8.0 q=-1.0 size=   12504kB time=00:01:43.99 bitrate= 985.0kbits/s speed=   1x    frame=  838 fps=8.0 q=-1.0 size=   12563kB time=00:01:44.49 bitrate= 984.9kbits/s speed=   1x    frame=  842 fps=8.0 q=-1.0 size=   12651kB time=00:01:44.99 bitrate= 987.0kbits/s speed=   1x    frame=  846 fps=8.0 q=-1.0 size=   12710kB time=00:01:45.49 bitrate= 987.0kbits/s speed=   1x    frame=  850 fps=8.0 q=-1.0 size=   12766kB time=00:01:45.99 bitrate= 986.6kbits/s speed=   1x    frame=  854 fps=8.0 q=-1.0 size=   12821kB time=00:01:46.49 bitrate= 986.2kbits/s speed=   1x    frame=  858 fps=8.0 q=-1.0 size=   12878kB time=00:01:46.99 bitrate= 986.0kbits/s speed=   1x    frame=  862 fps=8.0 q=-1.0 size=   12936kB time=00:01:47.49 bitrate= 985.8kbits/s speed=   1x    frame=  866 fps=8.0 q=-1.0 size=   12994kB time=00:01:47.99 bitrate= 985.7kbits/s speed=   1x    frame=  870 fps=8.0 q=-1.0 size=   13053kB time=00:01:48.49 bitrate= 985.6kbits/s speed=   1x    frame=  874 fps=8.0 q=-1.0 size=   13112kB time=00:01:48.99 bitrate= 985.5kbits/s speed=   1x    frame=  878 fps=8.0 q=-1.0 size=   13170kB time=00:01:49.49 bitrate= 985.3kbits/s speed=   1x    frame=  882 fps=8.0 q=-1.0 size=   13227kB time=00:01:49.99 bitrate= 985.1kbits/s speed=   1x    frame=  886 fps=8.0 q=-1.0 size=   13285kB time=00:01:50.49 bitrate= 984.9kbits/s speed=   1x    frame=  890 fps=8.0 q=-1.0 size=   13342kB time=00:01:50.99 bitrate= 984.7kbits/s speed=   1x    frame=  894 fps=8.0 q=-1.0 size=   13400kB time=00:01:51.50 bitrate= 984.5kbits/s speed=   1x    frame=  898 fps=8.0 q=-1.0 size=   13457kB time=00:01:52.01 bitrate= 984.1kbits/s speed=   1x    frame=  902 fps=8.0 q=-1.0 size=   13543kB time=00:01:52.50 bitrate= 986.2kbits/s speed=   1x    frame=  906 fps=8.0 q=-1.0 size=   13604kB time=00:01:53.01 bitrate= 986.1kbits/s speed=   1x    frame=  911 fps=8.0 q=-1.0 size=   13685kB time=00:01:53.62 bitrate= 986.6kbits/s speed=   1x    frame=  914 fps=8.0 q=-1.0 size=   13749kB time=00:01:54.03 bitrate= 987.7kbits/s speed=   1x    frame=  919 fps=8.0 q=-1.0 size=   13813kB time=00:01:54.62 bitrate= 987.2kbits/s speed=   1x    frame=  923 fps=8.0 q=-1.0 size=   13877kB time=00:01:55.12 bitrate= 987.5kbits/s speed=   1x    frame=  927 fps=8.0 q=-1.0 size=   13936kB time=00:01:55.62 bitrate= 987.4kbits/s speed=   1x    frame=  931 fps=8.0 q=-1.0 size=   13996kB time=00:01:56.12 bitrate= 987.3kbits/s speed=   1x    frame=  935 fps=8.0 q=-1.0 size=   14061kB time=00:01:56.62 bitrate= 987.7kbits/s speed=   1x    frame=  939 fps=8.0 q=-1.0 size=   14121kB time=00:01:57.12 bitrate= 987.6kbits/s speed=   1x    frame=  943 fps=8.0 q=-1.0 size=   14179kB time=00:01:57.62 bitrate= 987.5kbits/s speed=   1x    frame=  947 fps=8.0 q=-1.0 size=   14239kB time=00:01:58.12 bitrate= 987.5kbits/s speed=   1x    frame=  951 fps=8.0 q=-1.0 size=   14299kB time=00:01:58.62 bitrate= 987.4kbits/s speed=   1x    frame=  955 fps=8.0 q=-1.0 size=   14356kB time=00:01:59.12 bitrate= 987.3kbits/s speed=   1x    frame=  959 fps=8.0 q=-1.0 size=   14417kB time=00:01:59.62 bitrate= 987.3kbits/s speed=   1x    frame=  963 fps=8.0 q=-1.0 size=   14507kB time=00:02:00.12 bitrate= 989.4kbits/s speed=   1x    frame=  967 fps=8.0 q=-1.0 size=   14567kB time=00:02:00.62 bitrate= 989.3kbits/s speed=   1x    frame=  971 fps=8.0 q=-1.0 size=   14626kB time=00:02:01.12 bitrate= 989.2kbits/s speed=   1x    frame=  975 fps=8.0 q=-1.0 size=   14684kB time=00:02:01.62 bitrate= 989.0kbits/s speed=   1x    frame=  979 fps=8.0 q=-1.0 size=   14743kB time=00:02:02.12 bitrate= 989.0kbits/s speed=   1x    frame=  983 fps=8.0 q=-1.0 size=   14802kB time=00:02:02.62 bitrate= 988.9kbits/s speed=   1x    frame=  987 fps=8.0 q=-1.0 size=   14861kB time=00:02:03.12 bitrate= 988.8kbits/s speed=   1x    frame=  991 fps=8.0 q=-1.0 size=   14919kB time=00:02:03.62 bitrate= 988.6kbits/s speed=   1x    frame=  995 fps=8.0 q=-1.0 size=   14978kB time=00:02:04.13 bitrate= 988.5kbits/s speed=   1x    frame=  999 fps=8.0 q=-1.0 size=   15053kB time=00:02:04.64 bitrate= 989.3kbits/s speed=   1x    frame= 1003 fps=8.0 q=-1.0 size=   15097kB time=00:02:05.13 bitrate= 988.3kbits/s speed=   1x    frame= 1007 fps=8.0 q=-1.0 size=   15155kB time=00:02:05.64 bitrate= 988.1kbits/s speed=   1x    frame= 1011 fps=8.0 q=-1.0 size=   15216kB time=00:02:06.13 bitrate= 988.3kbits/s speed=   1x    frame= 1015 fps=8.0 q=-1.0 size=   15285kB time=00:02:06.64 bitrate= 988.7kbits/s speed=   1x    frame= 1019 fps=8.0 q=-1.0 size=   15382kB time=00:02:07.15 bitrate= 991.0kbits/s speed=   1x    frame= 1023 fps=8.0 q=-1.0 size=   15480kB time=00:02:07.66 bitrate= 993.3kbits/s speed=   1x    frame= 1028 fps=8.0 q=-1.0 size=   15545kB time=00:02:08.24 bitrate= 993.0kbits/s speed=   1x    frame= 1032 fps=8.0 q=-1.0 size=   15605kB time=00:02:08.74 bitrate= 992.9kbits/s speed=   1x    frame= 1036 fps=8.0 q=-1.0 size=   15667kB time=00:02:09.24 bitrate= 993.0kbits/s speed=   1x    frame= 1040 fps=8.0 q=-1.0 size=   15729kB time=00:02:09.74 bitrate= 993.1kbits/s speed=   1x    frame= 1044 fps=8.0 q=-1.0 size=   15798kB time=00:02:10.24 bitrate= 993.7kbits/s speed=   1x    frame= 1048 fps=8.0 q=-1.0 size=   15891kB time=00:02:10.74 bitrate= 995.6kbits/s speed=   1x    frame= 1052 fps=8.0 q=-1.0 size=   15972kB time=00:02:11.24 bitrate= 996.9kbits/s speed=   1x    frame= 1056 fps=8.0 q=-1.0 size=   16058kB time=00:02:11.74 bitrate= 998.5kbits/s speed=   1x    frame= 1060 fps=8.0 q=-1.0 size=   16145kB time=00:02:12.24 bitrate=1000.1kbits/s speed=   1x    frame= 1064 fps=8.0 q=-1.0 size=   16233kB time=00:02:12.74 bitrate=1001.8kbits/s speed=   1x    frame= 1068 fps=8.0 q=-1.0 size=   16325kB time=00:02:13.24 bitrate=1003.6kbits/s speed=   1x    frame= 1072 fps=8.0 q=-1.0 size=   16411kB time=00:02:13.74 bitrate=1005.2kbits/s speed=   1x    frame= 1076 fps=8.0 q=-1.0 size=   16491kB time=00:02:14.24 bitrate=1006.3kbits/s speed=   1x    frame= 1080 fps=8.0 q=-1.0 size=   16570kB time=00:02:14.74 bitrate=1007.4kbits/s speed=   1x    frame= 1084 fps=8.0 q=-1.0 size=   16666kB time=00:02:15.24 bitrate=1009.5kbits/s speed=   1x    frame= 1088 fps=8.0 q=-1.0 size=   16732kB time=00:02:15.74 bitrate=1009.8kbits/s speed=   1x    frame= 1092 fps=8.0 q=-1.0 size=   16794kB time=00:02:16.25 bitrate=1009.7kbits/s speed=   1x    frame= 1096 fps=8.0 q=-1.0 size=   16851kB time=00:02:16.74 bitrate=1009.5kbits/s speed=   1x    frame= 1100 fps=8.0 q=-1.0 size=   16898kB time=00:02:17.25 bitrate=1008.6kbits/s speed=   1x    frame= 1104 fps=8.0 q=-1.0 size=   17051kB time=00:02:17.76 bitrate=1013.9kbits/s speed=   1x    frame= 1108 fps=8.0 q=-1.0 size=   17196kB time=00:02:18.25 bitrate=1019.0kbits/s speed=   1x    frame= 1112 fps=8.0 q=-1.0 size=   17285kB time=00:02:18.76 bitrate=1020.4kbits/s speed=   1x    frame= 1117 fps=8.0 q=-1.0 size=   17367kB time=00:02:19.37 bitrate=1020.8kbits/s speed=   1x    frame= 1120 fps=8.0 q=-1.0 size=   17431kB time=00:02:19.78 bitrate=1021.5kbits/s speed=   1x    frame= 1125 fps=8.0 q=-1.0 size=   17494kB time=00:02:20.37 bitrate=1020.9kbits/s speed=   1x    frame= 1129 fps=8.0 q=-1.0 size=   17557kB time=00:02:20.87 bitrate=1021.0kbits/s speed=   1x    frame= 1133 fps=8.0 q=-1.0 size=   17621kB time=00:02:21.37 bitrate=1021.1kbits/s speed=   1x    frame= 1137 fps=8.0 q=-1.0 size=   17683kB time=00:02:21.87 bitrate=1021.1kbits/s speed=   1x    frame= 1141 fps=8.0 q=-1.0 size=   17746kB time=00:02:22.37 bitrate=1021.1kbits/s speed=   1x    frame= 1141 fps=8.0 q=-1.0 size=   17746kB time=00:02:22.37 bitrate=1021.1kbits/s speed=0.996x    frame= 1150 fps=8.0 q=-1.0 size=   17919kB time=00:02:23.49 bitrate=1023.0kbits/s speed=   1x    frame= 1154 fps=8.0 q=-1.0 size=   17983kB time=00:02:23.99 bitrate=1023.0kbits/s speed=   1x    frame= 1158 fps=8.0 q=-1.0 size=   18047kB time=00:02:24.49 bitrate=1023.2kbits/s speed=   1x    frame= 1162 fps=8.0 q=-1.0 size=   18111kB time=00:02:24.99 bitrate=1023.2kbits/s speed=   1x    frame= 1166 fps=8.0 q=-1.0 size=   18174kB time=00:02:25.49 bitrate=1023.2kbits/s speed=   1x    frame= 1170 fps=8.0 q=-1.0 size=   18237kB time=00:02:25.99 bitrate=1023.3kbits/s speed=   1x    frame= 1174 fps=8.0 q=-1.0 size=   18318kB time=00:02:26.49 bitrate=1024.3kbits/s speed=   1x    frame= 1178 fps=8.0 q=-1.0 size=   18381kB time=00:02:27.00 bitrate=1024.3kbits/s speed=   1x    frame= 1182 fps=8.0 q=-1.0 size=   18442kB time=00:02:27.49 bitrate=1024.3kbits/s speed=   1x    frame= 1186 fps=8.0 q=-1.0 size=   18505kB time=00:02:28.00 bitrate=1024.3kbits/s speed=   1x    frame= 1190 fps=8.0 q=-1.0 size=   18572kB time=00:02:28.51 bitrate=1024.4kbits/s speed=   1x    frame= 1194 fps=8.0 q=-1.0 size=   18665kB time=00:02:29.02 bitrate=1026.0kbits/s speed=   1x    frame= 1198 fps=8.0 q=-1.0 size=   18733kB time=00:02:29.53 bitrate=1026.2kbits/s speed=   1x    frame= 1203 fps=8.0 q=-1.0 size=   18830kB time=00:02:30.12 bitrate=1027.5kbits/s speed=   1x    frame= 1207 fps=8.0 q=-1.0 size=   18898kB time=00:02:30.62 bitrate=1027.8kbits/s speed=   1x    frame= 1211 fps=8.0 q=-1.0 size=   18970kB time=00:02:31.12 bitrate=1028.3kbits/s speed=   1x    frame= 1215 fps=8.0 q=-1.0 size=   19036kB time=00:02:31.62 bitrate=1028.5kbits/s speed=   1x    frame= 1219 fps=8.0 q=-1.0 size=   19130kB time=00:02:32.12 bitrate=1030.2kbits/s speed=   1x    frame= 1223 fps=8.0 q=-1.0 size=   19230kB time=00:02:32.62 bitrate=1032.2kbits/s speed=   1x    frame= 1227 fps=8.0 q=-1.0 size=   19331kB time=00:02:33.12 bitrate=1034.2kbits/s speed=   1x    frame= 1231 fps=8.0 q=-1.0 size=   19413kB time=00:02:33.62 bitrate=1035.2kbits/s speed=   1x    frame= 1235 fps=8.0 q=-1.0 size=   19484kB time=00:02:34.12 bitrate=1035.7kbits/s speed=   1x    frame= 1239 fps=8.0 q=-1.0 size=   19564kB time=00:02:34.62 bitrate=1036.5kbits/s speed=   1x    frame= 1243 fps=8.0 q=-1.0 size=   19641kB time=00:02:35.12 bitrate=1037.3kbits/s speed=   1x    frame= 1247 fps=8.0 q=-1.0 size=   19712kB time=00:02:35.62 bitrate=1037.7kbits/s speed=   1x    frame= 1251 fps=8.0 q=-1.0 size=   19775kB time=00:02:36.12 bitrate=1037.7kbits/s speed=   1x    frame= 1255 fps=8.0 q=-1.0 size=   19837kB time=00:02:36.62 bitrate=1037.6kbits/s speed=   1x    frame= 1259 fps=8.0 q=-1.0 size=   19898kB time=00:02:37.12 bitrate=1037.4kbits/s speed=   1x    frame= 1263 fps=8.0 q=-1.0 size=   19991kB time=00:02:37.62 bitrate=1039.0kbits/s speed=   1x    frame= 1267 fps=8.0 q=-1.0 size=   20051kB time=00:02:38.12 bitrate=1038.7kbits/s speed=   1x    frame= 1271 fps=8.0 q=-1.0 size=   20109kB time=00:02:38.63 bitrate=1038.4kbits/s speed=   1x    frame= 1275 fps=8.0 q=-1.0 size=   20170kB time=00:02:39.12 bitrate=1038.4kbits/s speed=   1x    frame= 1279 fps=8.0 q=-1.0 size=   20230kB time=00:02:39.63 bitrate=1038.1kbits/s speed=   1x    frame= 1284 fps=8.0 q=-1.0 size=   20305kB time=00:02:40.24 bitrate=1038.0kbits/s speed=   1x    frame= 1287 fps=8.0 q=-1.0 size=   20350kB time=00:02:40.63 bitrate=1037.8kbits/s speed=   1x    frame= 1292 fps=8.0 q=-1.0 size=   20425kB time=00:02:41.24 bitrate=1037.7kbits/s speed=   1x    frame= 1296 fps=8.0 q=-1.0 size=   20487kB time=00:02:41.74 bitrate=1037.6kbits/s speed=   1x    frame= 1300 fps=8.0 q=-1.0 size=   20546kB time=00:02:42.24 bitrate=1037.4kbits/s speed=   1x    frame= 1304 fps=8.0 q=-1.0 size=   20607kB time=00:02:42.74 bitrate=1037.3kbits/s speed=   1x    frame= 1308 fps=8.0 q=-1.0 size=   20667kB time=00:02:43.24 bitrate=1037.1kbits/s speed=   1x    frame= 1312 fps=8.0 q=-1.0 size=   20727kB time=00:02:43.74 bitrate=1036.9kbits/s speed=   1x    frame= 1316 fps=8.0 q=-1.0 size=   20786kB time=00:02:44.24 bitrate=1036.7kbits/s speed=   1x    frame= 1320 fps=8.0 q=-1.0 size=   20845kB time=00:02:44.74 bitrate=1036.5kbits/s speed=   1x    frame= 1324 fps=8.0 q=-1.0 size=   20934kB time=00:02:45.24 bitrate=1037.8kbits/s speed=   1x    frame= 1328 fps=8.0 q=-1.0 size=   20993kB time=00:02:45.74 bitrate=1037.6kbits/s speed=   1x    frame= 1332 fps=8.0 q=-1.0 size=   21054kB time=00:02:46.24 bitrate=1037.5kbits/s speed=   1x    frame= 1336 fps=8.0 q=-1.0 size=   21119kB time=00:02:46.74 bitrate=1037.6kbits/s speed=   1x    frame= 1340 fps=8.0 q=-1.0 size=   21185kB time=00:02:47.24 bitrate=1037.7kbits/s speed=   1x    frame= 1344 fps=8.0 q=-1.0 size=   21247kB time=00:02:47.74 bitrate=1037.6kbits/s speed=   1x    frame= 1348 fps=8.0 q=-1.0 size=   21309kB time=00:02:48.24 bitrate=1037.5kbits/s speed=   1x    frame= 1352 fps=8.0 q=-1.0 size=   21375kB time=00:02:48.74 bitrate=1037.7kbits/s speed=   1x    frame= 1356 fps=8.0 q=-1.0 size=   21439kB time=00:02:49.25 bitrate=1037.7kbits/s speed=   1x    frame= 1360 fps=8.0 q=-1.0 size=   21507kB time=00:02:49.74 bitrate=1037.9kbits/s speed=   1x    frame= 1364 fps=8.0 q=-1.0 size=   21585kB time=00:02:50.24 bitrate=1038.6kbits/s speed=   1x    frame= 1368 fps=8.0 q=-1.0 size=   21673kB time=00:02:50.75 bitrate=1039.8kbits/s speed=   1x    frame= 1372 fps=8.0 q=-1.0 size=   21798kB time=00:02:51.27 bitrate=1042.6kbits/s speed=   1x    frame= 1376 fps=8.0 q=-1.0 size=   21879kB time=00:02:51.78 bitrate=1043.4kbits/s speed=   1x    frame= 1381 fps=8.0 q=-1.0 size=   21958kB time=00:02:52.37 bitrate=1043.6kbits/s speed=   1x    frame= 1385 fps=8.0 q=-1.0 size=   22055kB time=00:02:52.87 bitrate=1045.1kbits/s speed=   1x    frame= 1389 fps=8.0 q=-1.0 size=   22148kB time=00:02:53.37 bitrate=1046.5kbits/s speed=   1x    frame= 1393 fps=8.0 q=-1.0 size=   22225kB time=00:02:53.87 bitrate=1047.1kbits/s speed=   1x    frame= 1397 fps=8.0 q=-1.0 size=   22293kB time=00:02:54.37 bitrate=1047.3kbits/s speed=   1x    frame= 1401 fps=8.0 q=-1.0 size=   22355kB time=00:02:54.87 bitrate=1047.2kbits/s speed=   1x    frame= 1405 fps=8.0 q=-1.0 size=   22415kB time=00:02:55.37 bitrate=1047.1kbits/s speed=   1x    frame= 1409 fps=8.0 q=-1.0 size=   22476kB time=00:02:55.87 bitrate=1046.9kbits/s speed=   1x    frame= 1413 fps=8.0 q=-1.0 size=   22536kB time=00:02:56.37 bitrate=1046.8kbits/s speed=   1x    frame= 1417 fps=8.0 q=-1.0 size=   22597kB time=00:02:56.87 bitrate=1046.6kbits/s speed=   1x    frame= 1421 fps=8.0 q=-1.0 size=   22657kB time=00:02:57.37 bitrate=1046.4kbits/s speed=   1x    frame= 1425 fps=8.0 q=-1.0 size=   22717kB time=00:02:57.87 bitrate=1046.2kbits/s speed=   1x    frame= 1429 fps=8.0 q=-1.0 size=   22776kB time=00:02:58.37 bitrate=1046.0kbits/s speed=   1x    frame= 1433 fps=8.0 q=-1.0 size=   22836kB time=00:02:58.87 bitrate=1045.9kbits/s speed=   1x    frame= 1437 fps=8.0 q=-1.0 size=   22907kB time=00:02:59.37 bitrate=1046.2kbits/s speed=   1x    frame= 1441 fps=8.0 q=-1.0 size=   22981kB time=00:02:59.87 bitrate=1046.6kbits/s speed=   1x    frame= 1445 fps=8.0 q=-1.0 size=   23092kB time=00:03:00.37 bitrate=1048.8kbits/s speed=   1x    frame= 1449 fps=8.0 q=-1.0 size=   23203kB time=00:03:00.88 bitrate=1050.8kbits/s speed=   1x    frame= 1453 fps=8.0 q=-1.0 size=   23311kB time=00:03:01.39 bitrate=1052.7kbits/s speed=   1x    frame= 1457 fps=8.0 q=-1.0 size=   23374kB time=00:03:01.88 bitrate=1052.7kbits/s speed=   1x    frame= 1462 fps=8.0 q=-1.0 size=   23491kB time=00:03:02.49 bitrate=1054.5kbits/s speed=   1x    frame= 1466 fps=8.0 q=-1.0 size=   23607kB time=00:03:02.99 bitrate=1056.8kbits/s speed=   1x    frame= 1469 fps=8.0 q=-1.0 size=   23720kB time=00:03:03.41 bitrate=1059.4kbits/s speed=   1x    frame= 1474 fps=8.0 q=-1.0 size=   23835kB time=00:03:03.99 bitrate=1061.2kbits/s speed=   1x    frame= 1478 fps=8.0 q=-1.0 size=   23918kB time=00:03:04.49 bitrate=1062.0kbits/s speed=   1x    frame= 1482 fps=8.0 q=-1.0 size=   24020kB time=00:03:04.99 bitrate=1063.7kbits/s speed=   1x    frame= 1486 fps=8.0 q=-1.0 size=   24124kB time=00:03:05.49 bitrate=1065.4kbits/s speed=   1x    frame= 1490 fps=8.0 q=-1.0 size=   24219kB time=00:03:05.99 bitrate=1066.7kbits/s speed=   1x    frame= 1494 fps=8.0 q=-1.0 size=   24312kB time=00:03:06.49 bitrate=1067.9kbits/s speed=   1x    frame= 1498 fps=8.0 q=-1.0 size=   24409kB time=00:03:06.99 bitrate=1069.3kbits/s speed=   1x    frame= 1502 fps=8.0 q=-1.0 size=   24526kB time=00:03:07.49 bitrate=1071.6kbits/s speed=   1x    frame= 1506 fps=8.0 q=-1.0 size=   24602kB time=00:03:07.99 bitrate=1072.1kbits/s speed=   1x    frame= 1510 fps=8.0 q=-1.0 size=   24674kB time=00:03:08.49 bitrate=1072.3kbits/s speed=   1x    frame= 1514 fps=8.0 q=-1.0 size=   24736kB time=00:03:08.99 bitrate=1072.2kbits/s speed=   1x    frame= 1518 fps=8.0 q=-1.0 size=   24794kB time=00:03:09.49 bitrate=1071.9kbits/s speed=   1x    frame= 1522 fps=8.0 q=-1.0 size=   24853kB time=00:03:09.99 bitrate=1071.6kbits/s speed=   1x    frame= 1526 fps=8.0 q=-1.0 size=   24914kB time=00:03:10.49 bitrate=1071.4kbits/s speed=   1x    frame= 1530 fps=8.0 q=-1.0 size=   24974kB time=00:03:10.99 bitrate=1071.1kbits/s speed=   1x    frame= 1534 fps=8.0 q=-1.0 size=   25034kB time=00:03:11.49 bitrate=1070.9kbits/s speed=   1x    frame= 1538 fps=8.0 q=-1.0 size=   25092kB time=00:03:11.99 bitrate=1070.6kbits/s speed=   1x    frame= 1542 fps=8.0 q=-1.0 size=   25148kB time=00:03:12.49 bitrate=1070.2kbits/s speed=   1x    frame= 1546 fps=8.0 q=-1.0 size=   25204kB time=00:03:12.99 bitrate=1069.8kbits/s speed=   1x    frame= 1550 fps=8.0 q=-1.0 size=   25261kB time=00:03:13.49 bitrate=1069.5kbits/s speed=   1x    frame= 1554 fps=8.0 q=-1.0 size=   25318kB time=00:03:14.00 bitrate=1069.1kbits/s speed=   1x    frame= 1558 fps=8.0 q=-1.0 size=   25375kB time=00:03:14.49 bitrate=1068.8kbits/s speed=   1x    frame= 1562 fps=8.0 q=-1.0 size=   25463kB time=00:03:15.00 bitrate=1069.7kbits/s speed=   1x    frame= 1566 fps=8.0 q=-1.0 size=   25525kB time=00:03:15.51 bitrate=1069.5kbits/s speed=   1x    frame= 1570 fps=8.0 q=-1.0 size=   25597kB time=00:03:16.02 bitrate=1069.7kbits/s speed=   1x    frame= 1574 fps=8.0 q=-1.0 size=   25641kB time=00:03:16.51 bitrate=1068.9kbits/s speed=   1x    frame= 1579 fps=8.0 q=-1.0 size=   25714kB time=00:03:17.12 bitrate=1068.6kbits/s speed=   1x    frame= 1582 fps=8.0 q=-1.0 size=   25770kB time=00:03:17.53 bitrate=1068.7kbits/s speed=   1x    frame= 1587 fps=8.0 q=-1.0 size=   25826kB time=00:03:18.12 bitrate=1067.9kbits/s speed=   1x    frame= 1591 fps=8.0 q=-1.0 size=   25883kB time=00:03:18.62 bitrate=1067.5kbits/s speed=   1x    frame= 1595 fps=8.0 q=-1.0 size=   25943kB time=00:03:19.12 bitrate=1067.3kbits/s speed=   1x    frame= 1599 fps=8.0 q=-1.0 size=   26002kB time=00:03:19.62 bitrate=1067.1kbits/s speed=   1x    frame= 1603 fps=8.0 q=-1.0 size=   26059kB time=00:03:20.12 bitrate=1066.8kbits/s speed=   1x    frame= 1607 fps=8.0 q=-1.0 size=   26117kB time=00:03:20.62 bitrate=1066.5kbits/s speed=   1x    frame= 1611 fps=8.0 q=-1.0 size=   26178kB time=00:03:21.12 bitrate=1066.3kbits/s speed=   1x    frame= 1615 fps=8.0 q=-1.0 size=   26236kB time=00:03:21.62 bitrate=1066.0kbits/s speed=   1x    frame= 1619 fps=8.0 q=-1.0 size=   26294kB time=00:03:22.12 bitrate=1065.7kbits/s speed=   1x    frame= 1623 fps=8.0 q=-1.0 size=   26383kB time=00:03:22.62 bitrate=1066.7kbits/s speed=   1x    frame= 1627 fps=8.0 q=-1.0 size=   26440kB time=00:03:23.12 bitrate=1066.3kbits/s speed=   1x    frame= 1631 fps=8.0 q=-1.0 size=   26498kB time=00:03:23.62 bitrate=1066.1kbits/s speed=   1x    frame= 1635 fps=8.0 q=-1.0 size=   26555kB time=00:03:24.12 bitrate=1065.7kbits/s speed=   1x    frame= 1639 fps=8.0 q=-1.0 size=   26612kB time=00:03:24.62 bitrate=1065.4kbits/s speed=   1x    frame= 1643 fps=8.0 q=-1.0 size=   26669kB time=00:03:25.12 bitrate=1065.1kbits/s speed=   1x    frame= 1647 fps=8.0 q=-1.0 size=   26727kB time=00:03:25.62 bitrate=1064.8kbits/s speed=   1x    frame= 1651 fps=8.0 q=-1.0 size=   26784kB time=00:03:26.12 bitrate=1064.5kbits/s speed=   1x    frame= 1655 fps=8.0 q=-1.0 size=   26841kB time=00:03:26.62 bitrate=1064.2kbits/s speed=   1x    frame= 1659 fps=8.0 q=-1.0 size=   26898kB time=00:03:27.12 bitrate=1063.9kbits/s speed=   1x    frame= 1663 fps=8.0 q=-1.0 size=   26956kB time=00:03:27.62 bitrate=1063.6kbits/s speed=   1x    frame= 1667 fps=8.0 q=-1.0 size=   27015kB time=00:03:28.12 bitrate=1063.4kbits/s speed=   1x    frame= 1671 fps=8.0 q=-1.0 size=   27072kB time=00:03:28.62 bitrate=1063.1kbits/s speed=   1x    frame= 1675 fps=8.0 q=-1.0 size=   27131kB time=00:03:29.12 bitrate=1062.8kbits/s speed=   1x    frame= 1679 fps=8.0 q=-1.0 size=   27190kB time=00:03:29.63 bitrate=1062.5kbits/s speed=   1x    frame= 1683 fps=8.0 q=-1.0 size=   27280kB time=00:03:30.14 bitrate=1063.5kbits/s speed=   1x    frame= 1687 fps=8.0 q=-1.0 size=   27355kB time=00:03:30.65 bitrate=1063.8kbits/s speed=   1x    frame= 1691 fps=8.0 q=-1.0 size=   27398kB time=00:03:31.13 bitrate=1063.0kbits/s speed=   1x    frame= 1696 fps=8.0 q=-1.0 size=   27470kB time=00:03:31.74 bitrate=1062.8kbits/s speed=   1x    frame= 1699 fps=8.0 q=-1.0 size=   27529kB time=00:03:32.16 bitrate=1062.9kbits/s speed=   1x    frame= 1704 fps=8.0 q=-1.0 size=   27588kB time=00:03:32.74 bitrate=1062.3kbits/s speed=   1x    frame= 1708 fps=8.0 q=-1.0 size=   27646kB time=00:03:33.24 bitrate=1062.0kbits/s speed=   1x    frame= 1712 fps=8.0 q=-1.0 size=   27706kB time=00:03:33.74 bitrate=1061.8kbits/s speed=   1x    frame= 1716 fps=8.0 q=-1.0 size=   27765kB time=00:03:34.24 bitrate=1061.6kbits/s speed=   1x    frame= 1720 fps=8.0 q=-1.0 size=   27824kB time=00:03:34.74 bitrate=1061.4kbits/s speed=   1x    frame= 1724 fps=8.0 q=-1.0 size=   27882kB time=00:03:35.24 bitrate=1061.2kbits/s speed=   1x    frame= 1728 fps=8.0 q=-1.0 size=   27939kB time=00:03:35.74 bitrate=1060.9kbits/s speed=   1x    frame= 1732 fps=8.0 q=-1.0 size=   27996kB time=00:03:36.24 bitrate=1060.6kbits/s speed=   1x    frame= 1736 fps=8.0 q=-1.0 size=   28054kB time=00:03:36.74 bitrate=1060.3kbits/s speed=   1x    frame= 1740 fps=8.0 q=-1.0 size=   28111kB time=00:03:37.24 bitrate=1060.0kbits/s speed=   1x    frame= 1744 fps=8.0 q=-1.0 size=   28201kB time=00:03:37.74 bitrate=1061.0kbits/s speed=   1x    frame= 1748 fps=8.0 q=-1.0 size=   28257kB time=00:03:38.24 bitrate=1060.6kbits/s speed=   1x    frame= 1752 fps=8.0 q=-1.0 size=   28313kB time=00:03:38.74 bitrate=1060.3kbits/s speed=   1x    frame= 1756 fps=8.0 q=-1.0 size=   28371kB time=00:03:39.24 bitrate=1060.1kbits/s speed=   1x    frame= 1760 fps=8.0 q=-1.0 size=   28430kB time=00:03:39.74 bitrate=1059.9kbits/s speed=   1x    frame= 1764 fps=8.0 q=-1.0 size=   28488kB time=00:03:40.24 bitrate=1059.6kbits/s speed=   1x    frame= 1768 fps=8.0 q=-1.0 size=   28545kB time=00:03:40.75 bitrate=1059.3kbits/s speed=   1x    frame= 1772 fps=8.0 q=-1.0 size=   28601kB time=00:03:41.26 bitrate=1058.9kbits/s speed=   1x    frame= 1776 fps=8.0 q=-1.0 size=   28670kB time=00:03:41.77 bitrate=1059.0kbits/s speed=   1x    frame= 1780 fps=8.0 q=-1.0 size=   28712kB time=00:03:42.26 bitrate=1058.3kbits/s speed=   1x    frame= 1785 fps=8.0 q=-1.0 size=   28784kB time=00:03:42.87 bitrate=1058.0kbits/s speed=   1x    frame= 1789 fps=8.0 q=-1.0 size=   28842kB time=00:03:43.37 bitrate=1057.8kbits/s speed=   1x    frame= 1793 fps=8.0 q=-1.0 size=   28902kB time=00:03:43.87 bitrate=1057.6kbits/s speed=   1x    frame= 1797 fps=8.0 q=-1.0 size=   28962kB time=00:03:44.37 bitrate=1057.4kbits/s speed=   1x    frame= 1801 fps=8.0 q=-1.0 size=   29024kB time=00:03:44.87 bitrate=1057.3kbits/s speed=   1x    frame= 1805 fps=8.0 q=-1.0 size=   29115kB time=00:03:45.37 bitrate=1058.3kbits/s speed=   1x    frame= 1809 fps=8.0 q=-1.0 size=   29173kB time=00:03:45.87 bitrate=1058.1kbits/s speed=   1x    frame= 1813 fps=8.0 q=-1.0 size=   29230kB time=00:03:46.37 bitrate=1057.8kbits/s speed=   1x    frame= 1817 fps=8.0 q=-1.0 size=   29287kB time=00:03:46.87 bitrate=1057.5kbits/s speed=   1x    [flv @ 0x1982a90] Failed to update header with correct duration.
[flv @ 0x1982a90] Failed to update header with correct filesize.
frame= 1818 fps=8.0 q=-1.0 Lsize=   29316kB time=00:03:46.99 bitrate=1058.0kbits/s speed=   1x    
video:29079kB audio:39kB subtitle:0kB other streams:0kB global headers:0kB muxing overhead: 0.680654%
[aac @ 0x1985640] Qavg: 0.000
Exiting normally, received signal 15.
